<?xml version="1.0" encoding="UTF-8" standalone="no"?>
<svg
   width="32"
   height="32"
   viewBox="0 0 32 32"
   version="1.1"
   id="svg3"
   xmlns="http://www.w3.org/2000/svg"
   xmlns:svg="http://www.w3.org/2000/svg"
   xmlns:rdf="http://www.w3.org/1999/02/22-rdf-syntax-ns#"
   xmlns:cc="http://creativecommons.org/ns#"
   xmlns:dc="http://purl.org/dc/elements/1.1/">
  <defs
     id="defs3" />
  <title
     id="title1">AK2 Favicon</title>
  <style
     id="style1">
    .ak-text { fill: #000000; }
    .two-text { fill: #007bff; }
    /* Dark mode override */
    @media (prefers-color-scheme: dark) {
      .ak-text { fill: #ffffff; }
    }
  </style>
  <path
     class="ak-text"
     style="font-weight:bold;font-size:21.0569px;line-height:1.29;font-family:Cantarell;-inkscape-font-specification:'Cantarell Bold';text-align:center;letter-spacing:0px;word-spacing:0px;text-anchor:middle;fill-rule:evenodd;stroke-width:2.98445;stroke-linecap:round;stroke-linejoin:round"
     d="m 2.1243532,23.306744 h 3.5477079 l 2.3540396,-3.575512 5.1935083,0.03125 v 3.544262 H 16.00085 L 15.99915,8.6932562 h -4.242023 z m 7.0786004,-5.997056 4.0166554,-6.367503 v 6.398753 z"
     id="text3"
     aria-label="A" />
  <path
     class="ak-text"
     d="m 21.642369,23.306744 h 3.621786 l -6.127558,-7.81211 5.832762,-6.8013778 H 21.663425 L 15.999119,15.473577 V 8.6932562 h -2.77951 V 23.306744 h 2.77951 v -7.412029 z"
     id="text5"
     style="font-weight:bold;font-size:21.0569px;line-height:1.29;font-family:Cantarell;-inkscape-font-specification:'Cantarell Bold';text-align:center;letter-spacing:0px;word-spacing:0px;text-anchor:middle;fill-rule:evenodd;stroke-width:2.98445;stroke-linecap:round;stroke-linejoin:round"
     aria-label="K" />
  <path
     class="two-text"
     d="m 13.676466,29.903393 h 18.323493 v -4.40393 H 21.029456 c 7.117065,-6.252007 10.066125,-10.695258 10.066125,-15.177829 0,-4.9544209 -3.656835,-8.100085 -9.240389,-8.100085 -3.420909,0 -6.566573,1.1403033 -8.925821,3.1849849 l 1.336907,3.6568345 c 2.162644,-1.6121529 4.521892,-2.3985689 6.566574,-2.3985689 3.106343,0 5.033062,1.7694361 5.033062,4.4432505 0,3.656834 -3.774797,7.785519 -12.189448,15.295792 z"
     id="text4"
     style="font-weight:bold;font-size:39.3208px;line-height:1.29;font-family:Cantarell;-inkscape-font-specification:'Cantarell Bold';text-align:center;letter-spacing:-6.38961px;word-spacing:0px;text-anchor:middle;fill-rule:evenodd;stroke-width:5.57302;stroke-linecap:round;stroke-linejoin:round"
     aria-label="2" />
  <metadata
     id="metadata1">
    <rdf:RDF>
      <cc:Work
         rdf:about="">
        <dc:title>AK2 Favicon</dc:title>
      </cc:Work>
    </rdf:RDF>
  </metadata>
</svg>
